<svg width="91.70132304333526" height="435.59375" viewBox="0 0 100 490.32260049270246" fill="none"
     xmlns="http://www.w3.org/2000/svg">
    <g transform="matrix(7.680491843996748,0,0,7.680491843996748,-18.43318482040488,-27.649795542326842)"
       fill="#ffffff">
        <path d="M15.42 9.899999999999999 l0 36.18 c0 5.82 -1.98 7.98 -5.82 13.56 c-1.74 2.46 -3.66 5.04 -4.5 7.8 l-2.34 0 c0.54 -2.46 1.74 -4.44 3.72 -7.2 c-3 -0.72 -4.08 -3.12 -4.08 -6.6 l0 -44.34 c0 -3.12 1.5 -5.7 6.12 -5.7 l0.84 0 c4.5 0 6.06 2.58 6.06 6.3 z M13.14 46.68 l0 -35.82 c0 -2.7 -0.6 -4.98 -4.26 -4.98 c-3.6 0 -4.2 2.28 -4.2 4.92 l0 42.42 c0 2.4 0.54 4.5 3.24 4.86 c0.24 -0.24 0.42 -0.48 0.6 -0.78 c3 -4.26 4.68 -6.84 4.62 -10.62 z"/>
    </g>
</svg>
