<svg width="1920" height="1000" viewBox="0 0 1920 1000" fill="none" xmlns="http://www.w3.org/2000/svg">
<mask id="mask0_342_19002" style="mask-type:alpha" maskUnits="userSpaceOnUse" x="0" y="0" width="1920" height="1000">
<rect width="1920" height="1000" fill="#C4C4C4"/>
</mask>
<g mask="url(#mask0_342_19002)">
<path fill-rule="evenodd" clip-rule="evenodd" d="M1352.54 -902.764C1683.54 -892.913 2034.76 -956.174 2329.07 -815.396C2622.24 -675.16 2744.23 -354.559 2968.13 -129.957C3209.45 112.108 3635.47 243.388 3706.53 566.345C3777.98 891.047 3552.75 1227.65 3322.68 1481.29C3116.4 1708.69 2786.66 1791.11 2491.17 1906.2C2290.22 1984.47 1992.24 1885.82 1864.18 2049.34C1565.97 2430.16 1764.63 3085.44 1352.54 3360.24C1053.13 3559.9 627.297 3248.36 298.537 3093.38C-26.5127 2940.15 -425.516 2786.11 -543.745 2466.32C-669.839 2125.25 -229.488 1768.95 -320.692 1418.46C-413.656 1061.21 -1183.49 900.809 -1040.3 558.126C-883.496 182.882 -102.559 502.543 187.237 202.935C451.552 -70.3278 68.6621 -611.898 345.345 -874.429C583.054 -1099.98 1012.56 -912.881 1352.54 -902.764Z" stroke="#30383D"/>
<path fill-rule="evenodd" clip-rule="evenodd" d="M1350.99 -751.24C1658.16 -742.093 1984.09 -800.838 2257.21 -670.109C2529.27 -539.883 2642.48 -242.168 2850.26 -33.5995C3074.21 191.186 3469.55 313.096 3535.5 612.998C3601.81 914.522 3392.79 1227.1 3179.29 1462.63C2987.86 1673.8 2681.86 1750.34 2407.64 1857.21C2221.15 1929.89 1944.63 1838.28 1825.8 1990.13C1549.05 2343.77 1733.41 2952.27 1350.99 3207.45C1073.14 3392.86 677.961 3103.56 372.871 2959.65C71.2236 2817.36 -299.052 2674.31 -408.77 2377.34C-525.785 2060.63 -117.138 1729.76 -201.776 1404.29C-288.047 1072.54 -1002.46 923.587 -869.573 605.366C-724.06 256.909 0.652731 553.751 269.584 275.53C514.869 21.7736 159.546 -481.138 416.309 -724.928C636.903 -934.378 1035.49 -760.635 1350.99 -751.24Z" stroke="#30383D"/>
<path fill-rule="evenodd" clip-rule="evenodd" d="M1349.57 -610.412C1634.99 -601.918 1937.85 -656.466 2191.62 -535.077C2444.42 -414.155 2549.6 -137.711 2742.67 55.957C2950.76 264.683 3318.11 377.883 3379.39 656.359C3441 936.34 3246.78 1226.59 3048.4 1445.29C2870.53 1641.37 2586.2 1712.44 2331.4 1811.68C2158.12 1879.17 1901.17 1794.1 1790.76 1935.1C1533.61 2263.48 1704.91 2828.5 1349.57 3065.45C1091.4 3237.61 724.207 2968.99 440.722 2835.35C160.436 2703.23 -183.618 2570.4 -285.566 2294.65C-394.295 2000.56 -14.5863 1693.33 -93.2304 1391.12C-173.392 1083.07 -837.212 944.758 -713.736 649.272C-578.528 325.71 94.8632 601.344 344.75 343.001C572.665 107.374 242.504 -359.607 481.084 -585.98C686.057 -780.466 1056.42 -619.136 1349.57 -610.412Z" stroke="#30383D"/>
<path fill-rule="evenodd" clip-rule="evenodd" d="M1348.29 -482.954C1614.04 -475.052 1896.01 -525.801 2132.29 -412.865C2367.67 -300.364 2465.6 -43.17 2645.37 137.011C2839.11 331.202 3181.13 436.519 3238.19 695.603C3295.55 956.087 3114.72 1226.12 2930.01 1429.59C2764.41 1612.02 2499.67 1678.14 2262.44 1770.47C2101.1 1833.26 1861.87 1754.12 1759.06 1885.3C1519.64 2190.81 1679.14 2716.48 1348.29 2936.93C1107.91 3097.11 766.035 2847.19 502.091 2722.86C241.126 2599.93 -79.2123 2476.36 -174.132 2219.81C-275.367 1946.2 78.1677 1660.36 4.94465 1379.19C-69.691 1092.6 -687.753 963.918 -572.788 689.009C-446.9 387.979 180.073 644.419 412.734 404.066C624.938 184.848 317.537 -249.614 539.67 -460.223C730.514 -641.166 1075.35 -491.07 1348.29 -482.954Z" stroke="#30383D"/>
<path fill-rule="evenodd" clip-rule="evenodd" d="M1347.13 -368.865C1595 -361.492 1858.01 -408.841 2078.4 -303.472C2297.94 -198.508 2389.29 41.4544 2556.96 209.564C2737.67 390.744 3056.7 489.005 3109.92 730.731C3163.42 973.763 2994.75 1225.7 2822.47 1415.54C2668 1585.75 2421.07 1647.44 2199.79 1733.58C2049.31 1792.16 1826.17 1718.33 1730.27 1840.72C1506.96 2125.76 1655.72 2616.22 1347.13 2821.9C1122.92 2971.34 804.033 2738.16 557.841 2622.16C314.428 2507.47 15.6352 2392.18 -72.9009 2152.82C-167.326 1897.54 162.43 1630.85 94.1319 1368.52C24.516 1101.13 -551.976 981.07 -444.744 724.579C-327.323 443.717 257.481 682.976 474.495 458.727C672.426 254.195 385.7 -151.158 592.893 -347.657C770.901 -516.477 1092.54 -376.437 1347.13 -368.865Z" stroke="#30383D"/>
<path fill-rule="evenodd" clip-rule="evenodd" d="M1346.1 -266.364C1578.18 -259.467 1824.43 -303.761 2030.78 -205.19C2236.33 -106.998 2321.85 117.483 2478.84 274.747C2648.04 444.238 2946.73 536.159 2996.56 762.29C3046.65 989.642 2888.74 1225.33 2727.43 1402.92C2582.8 1562.15 2351.61 1619.86 2144.43 1700.44C2003.53 1755.24 1794.61 1686.17 1704.83 1800.67C1495.74 2067.32 1635.03 2526.13 1346.1 2718.54C1136.18 2858.34 837.613 2640.21 607.109 2531.69C379.207 2424.4 99.4539 2316.55 16.5596 2092.63C-71.8487 1853.82 236.895 1604.34 172.949 1358.93C107.769 1108.79 -431.988 996.478 -331.589 756.535C-221.65 493.794 325.889 717.616 529.074 507.835C714.392 316.499 445.937 -62.7031 639.927 -246.524C806.592 -404.452 1107.74 -273.448 1346.1 -266.364Z" stroke="#30383D"/>
<path fill-rule="evenodd" clip-rule="evenodd" d="M1344.95 -152.275C1559.29 -145.907 1786.72 -186.801 1977.3 -95.7966C2167.14 -5.14193 2246.14 202.107 2391.13 347.299C2547.39 503.78 2823.26 588.646 2869.28 797.418C2915.55 1007.32 2769.7 1224.91 2620.72 1388.87C2487.14 1535.88 2273.62 1589.16 2082.27 1663.55C1952.14 1714.15 1759.18 1650.38 1676.26 1756.09C1483.15 2002.27 1611.8 2425.86 1344.95 2603.51C1151.07 2732.57 875.316 2531.19 662.427 2431C451.941 2331.95 193.566 2232.37 117.006 2025.64C35.354 1805.16 320.504 1574.83 261.444 1348.26C201.246 1117.32 -297.264 1013.63 -204.537 792.105C-103 549.532 402.697 756.174 590.355 562.495C761.512 385.846 513.571 35.7527 692.738 -133.958C846.666 -279.763 1124.8 -158.815 1344.95 -152.275Z" stroke="#30383D"/>
<path fill-rule="evenodd" clip-rule="evenodd" d="M1336.97 -56.0123C1536.35 -50.0915 1747.91 -88.117 1925.18 -3.49649C2101.77 80.7985 2175.25 273.509 2310.12 408.515C2455.47 554.019 2712.08 632.93 2754.89 827.057C2797.93 1022.23 2662.26 1224.56 2523.68 1377.02C2399.43 1513.71 2200.81 1563.25 2022.82 1632.43C1901.78 1679.48 1722.29 1620.18 1645.16 1718.47C1465.53 1947.38 1585.19 2341.26 1336.97 2506.44C1156.63 2626.46 900.129 2439.2 702.102 2346.04C506.31 2253.93 265.973 2161.34 194.758 1969.11C118.806 1764.1 384.049 1549.93 329.113 1339.26C273.117 1124.52 -190.591 1028.1 -104.337 822.116C-9.8885 596.56 460.504 788.706 635.061 608.614C794.27 444.358 563.638 118.824 730.296 -38.9808C873.479 -174.557 1132.19 -62.0937 1336.97 -56.0123Z" stroke="#30383D"/>
<path fill-rule="evenodd" clip-rule="evenodd" d="M1335.95 45.5974C1519.53 51.0468 1714.33 16.0495 1877.55 93.9311C2040.15 171.513 2107.81 348.877 2231.99 473.131C2365.83 607.047 2602.12 679.675 2641.53 858.342C2681.16 1037.97 2556.24 1224.19 2428.64 1364.51C2314.23 1490.31 2131.35 1535.91 1967.46 1599.58C1856 1642.88 1690.74 1588.3 1619.72 1678.77C1454.32 1889.45 1564.5 2251.96 1335.95 2403.99C1169.89 2514.44 933.709 2342.1 751.37 2256.36C571.089 2171.59 349.792 2086.37 284.219 1909.45C214.284 1720.77 458.514 1523.65 407.929 1329.75C356.369 1132.11 -70.6025 1043.37 8.81782 853.795C95.7844 646.201 528.912 823.045 689.64 657.295C836.236 506.12 623.875 206.511 777.331 61.2726C909.17 -63.5071 1147.39 40.0003 1335.95 45.5974Z" stroke="#30383D"/>
<path fill-rule="evenodd" clip-rule="evenodd" d="M1335.04 134.73C1504.77 139.766 1684.87 107.425 1835.78 179.395C1986.1 251.088 2048.65 414.99 2163.47 529.813C2287.21 653.565 2505.65 720.68 2542.09 885.786C2578.73 1051.78 2463.24 1223.87 2345.27 1353.53C2239.5 1469.79 2070.42 1511.93 1918.9 1570.76C1815.85 1610.78 1663.06 1560.34 1597.4 1643.94C1444.48 1838.63 1546.35 2173.63 1335.04 2314.11C1181.52 2416.19 963.164 2256.92 794.587 2177.69C627.912 2099.35 423.317 2020.6 362.693 1857.11C298.036 1682.75 523.833 1500.6 477.067 1321.42C429.398 1138.78 34.6505 1056.77 108.077 881.584C188.48 689.747 588.919 853.168 737.516 699.999C873.048 560.298 676.715 283.429 818.589 149.215C940.478 33.9064 1160.72 129.557 1335.04 134.73Z" stroke="#30383D"/>
<path fill-rule="evenodd" clip-rule="evenodd" d="M1334.14 222.97C1490.02 227.596 1655.41 197.885 1794 264.003C1932.06 329.867 1989.5 480.441 2094.94 585.928C2208.58 699.617 2409.19 761.274 2442.66 912.954C2476.3 1065.45 2370.24 1223.55 2261.9 1342.67C2164.76 1449.47 2009.48 1488.18 1870.34 1542.23C1775.7 1578.99 1635.38 1532.66 1575.08 1609.46C1434.65 1788.32 1528.2 2096.08 1334.14 2225.14C1193.15 2318.91 992.62 2172.6 837.804 2099.81C684.736 2027.84 496.842 1955.49 441.167 1805.3C381.788 1645.11 589.153 1477.77 546.204 1313.16C502.427 1145.38 139.904 1070.04 207.336 909.094C281.175 732.857 648.925 882.989 785.393 742.275C909.861 613.933 729.555 359.578 859.847 236.278C971.786 130.345 1174.05 218.218 1334.14 222.97Z" stroke="#30383D"/>
<path fill-rule="evenodd" clip-rule="evenodd" d="M1332.61 326.363C1472.62 330.509 1621.18 303.879 1745.66 363.14C1869.67 422.173 1921.27 557.131 2015.97 651.678C2118.05 753.576 2298.24 808.839 2328.3 944.788C2358.53 1081.47 2263.26 1223.17 2165.94 1329.94C2078.69 1425.66 1939.22 1460.36 1814.23 1508.8C1729.23 1541.75 1603.19 1500.22 1549.03 1569.06C1422.89 1729.37 1506.92 2005.21 1332.61 2120.89C1205.97 2204.93 1025.85 2073.79 886.788 2008.55C749.299 1944.05 580.528 1879.21 530.52 1744.59C477.184 1601.02 663.444 1451.03 624.867 1303.49C585.545 1153.11 259.918 1085.58 320.487 941.329C386.812 783.369 717.133 917.931 839.711 791.81C951.511 676.779 789.556 448.803 906.587 338.29C1007.13 243.344 1188.81 322.104 1332.61 326.363Z" stroke="#30383D"/>
<path fill-rule="evenodd" clip-rule="evenodd" d="M1332.28 408.364C1459.47 412.13 1594.43 387.944 1707.52 441.766C1820.17 495.382 1867.05 617.954 1953.09 703.824C2045.81 796.371 2209.52 846.563 2236.83 970.036C2264.28 1094.18 2177.73 1222.87 2089.33 1319.84C2010.06 1406.78 1883.35 1438.29 1769.81 1482.29C1692.59 1512.22 1578.09 1474.5 1528.88 1537.02C1414.29 1682.61 1490.63 1933.14 1332.28 2038.2C1217.23 2114.54 1053.59 1995.43 927.264 1936.18C802.361 1877.6 649.039 1818.7 603.608 1696.44C555.155 1566.04 724.365 1429.82 689.319 1295.82C653.596 1159.24 357.777 1097.91 412.802 966.894C473.055 823.43 773.139 945.643 884.496 831.097C986.062 726.622 838.933 519.568 945.251 419.196C1036.59 332.963 1201.64 404.496 1332.28 408.364Z" stroke="#30383D"/>
<path fill-rule="evenodd" clip-rule="evenodd" d="M1331.5 485.018C1446.78 488.428 1569.09 466.526 1671.59 515.265C1773.69 563.816 1816.17 674.812 1894.15 752.571C1978.19 836.377 2126.56 881.827 2151.31 993.638C2176.19 1106.05 2097.75 1222.59 2017.63 1310.4C1945.79 1389.13 1830.95 1417.67 1728.05 1457.51C1658.06 1484.61 1554.28 1450.45 1509.69 1507.07C1405.83 1638.91 1475.02 1865.77 1331.5 1960.91C1227.23 2030.04 1078.93 1922.18 964.431 1868.53C851.229 1815.48 712.271 1762.14 671.096 1651.43C627.182 1533.35 780.54 1409.99 748.777 1288.65C716.401 1164.97 448.295 1109.43 498.165 990.793C552.773 860.879 824.745 971.549 925.67 867.822C1017.72 773.215 884.375 585.718 980.733 494.827C1063.52 416.739 1213.1 481.515 1331.5 485.018Z" stroke="#30383D"/>
<path fill-rule="evenodd" clip-rule="evenodd" d="M1330.8 554.54C1435.27 557.627 1546.12 537.798 1639 581.926C1731.53 625.884 1770.03 726.379 1840.7 796.782C1916.86 872.659 2051.32 913.81 2073.75 1015.04C2096.3 1116.82 2025.21 1222.34 1952.6 1301.84C1887.5 1373.12 1783.43 1398.96 1690.17 1435.03C1626.74 1459.57 1532.69 1428.64 1492.28 1479.9C1398.16 1599.27 1460.86 1804.67 1330.8 1890.81C1236.3 1953.4 1101.9 1855.74 998.141 1807.16C895.551 1759.13 769.62 1710.85 732.306 1610.61C692.509 1503.7 831.489 1392.01 802.704 1282.15C773.363 1170.16 530.392 1119.88 575.587 1012.47C625.076 894.844 871.55 995.044 963.013 901.13C1046.43 815.473 925.589 645.714 1012.91 563.421C1087.94 492.721 1223.5 551.368 1330.8 554.54Z" stroke="#30383D"/>
<path fill-rule="evenodd" clip-rule="evenodd" d="M1329.58 624.954C1423.04 627.714 1522.2 609.983 1605.29 649.441C1688.06 688.748 1722.5 778.607 1785.72 841.56C1853.85 909.407 1974.13 946.203 1994.2 1036.72C2014.37 1127.73 1950.78 1222.08 1885.82 1293.17C1827.58 1356.91 1734.49 1380.01 1651.06 1412.27C1594.32 1434.2 1510.19 1406.55 1474.04 1452.39C1389.84 1559.12 1445.93 1742.79 1329.58 1819.81C1245.05 1875.77 1124.82 1788.45 1032 1745.02C940.226 1702.07 827.573 1658.89 794.192 1569.26C758.592 1473.66 882.918 1373.8 857.168 1275.56C830.921 1175.43 613.568 1130.47 653.998 1034.42C698.269 929.244 918.755 1018.84 1000.57 934.865C1075.2 858.273 967.097 706.479 1045.21 632.895C1112.33 569.677 1233.59 622.118 1329.58 624.954Z" stroke="#30383D"/>
<path fill-rule="evenodd" clip-rule="evenodd" d="M1329.37 694.476C1411.95 696.914 1499.57 681.255 1572.99 716.103C1646.13 750.816 1676.57 830.175 1732.43 885.771C1792.63 945.69 1898.91 978.187 1916.64 1058.13C1934.47 1138.5 1878.27 1221.82 1820.88 1284.61C1769.42 1340.9 1687.15 1361.3 1613.44 1389.79C1563.3 1409.16 1488.96 1384.74 1457.02 1425.22C1382.62 1519.49 1432.18 1681.69 1329.37 1749.71C1254.68 1799.13 1148.44 1722.02 1066.42 1683.65C985.332 1645.73 885.79 1607.59 856.295 1528.44C824.837 1444.01 934.694 1355.81 911.941 1269.06C888.749 1180.63 696.692 1140.92 732.416 1056.09C771.535 963.209 966.36 1042.34 1038.66 968.173C1104.6 900.532 1009.08 766.475 1078.1 701.49C1137.4 645.659 1244.56 691.972 1329.37 694.476Z" stroke="#30383D"/>
<path fill-rule="evenodd" clip-rule="evenodd" d="M1328.61 771.13C1399.41 773.212 1474.53 759.838 1537.48 789.601C1600.19 819.25 1626.28 887.032 1674.18 934.517C1725.79 985.695 1816.92 1013.45 1832.12 1081.73C1847.4 1150.38 1799.23 1221.55 1750.01 1275.17C1705.89 1323.25 1635.36 1340.67 1572.16 1365C1529.17 1381.55 1465.44 1360.7 1438.05 1395.27C1374.26 1475.78 1416.75 1614.32 1328.61 1672.42C1264.56 1714.63 1173.48 1648.77 1103.16 1616C1033.63 1583.6 948.287 1551.04 922.998 1483.43C896.026 1411.32 990.216 1335.99 970.708 1261.89C950.823 1186.36 786.157 1152.44 816.786 1079.99C850.326 1000.66 1017.37 1068.24 1079.35 1004.9C1135.89 947.124 1053.99 832.625 1113.17 777.12C1164.02 729.434 1255.89 768.991 1328.61 771.13Z" stroke="#30383D"/>
<path fill-rule="evenodd" clip-rule="evenodd" d="M1326.77 854.022C1384.68 855.72 1446.14 844.816 1497.63 869.082C1548.93 893.255 1570.27 948.517 1609.45 987.231C1651.67 1028.96 1726.21 1051.59 1738.64 1107.25C1751.15 1163.22 1711.74 1221.24 1671.48 1264.96C1635.39 1304.16 1577.7 1318.37 1525.99 1338.2C1490.83 1351.7 1438.7 1334.69 1416.29 1362.88C1364.11 1428.52 1398.87 1541.47 1326.77 1588.84C1274.38 1623.25 1199.87 1569.55 1142.35 1542.84C1085.48 1516.43 1015.66 1489.88 994.978 1434.75C972.916 1375.96 1049.96 1314.55 1034.01 1254.13C1017.74 1192.55 883.042 1164.9 908.097 1105.84C935.533 1041.16 1072.17 1096.26 1122.88 1044.61C1169.12 997.51 1102.13 904.159 1150.54 858.906C1192.13 820.028 1267.28 852.279 1326.77 854.022Z" stroke="#30383D"/>
<path fill-rule="evenodd" clip-rule="evenodd" d="M1327.13 917.306C1375.21 918.71 1426.22 909.692 1468.97 929.761C1511.55 949.753 1529.27 995.456 1561.79 1027.48C1596.84 1061.98 1658.72 1080.7 1669.04 1126.74C1679.42 1173.03 1646.71 1221.01 1613.29 1257.17C1583.33 1289.59 1535.43 1301.34 1492.51 1317.74C1463.33 1328.9 1420.04 1314.84 1401.44 1338.15C1358.13 1392.44 1386.98 1485.85 1327.13 1525.03C1283.64 1553.49 1221.79 1509.08 1174.04 1486.99C1126.82 1465.14 1068.87 1443.18 1051.7 1397.59C1033.38 1348.97 1097.34 1298.18 1084.09 1248.21C1070.59 1197.29 958.772 1174.42 979.571 1125.57C1002.35 1072.07 1115.78 1117.64 1157.87 1074.93C1196.26 1035.98 1140.65 958.771 1180.83 921.345C1215.36 889.191 1277.75 915.864 1327.13 917.306Z" stroke="#30383D"/>
<path fill-rule="evenodd" clip-rule="evenodd" d="M1326.61 968.111C1366.65 969.279 1409.14 961.775 1444.74 978.475C1480.2 995.11 1494.96 1033.14 1522.05 1059.78C1551.24 1088.5 1602.77 1104.07 1611.37 1142.38C1620.01 1180.9 1592.77 1220.83 1564.94 1250.91C1539.98 1277.89 1500.09 1287.67 1464.35 1301.32C1440.04 1310.6 1403.99 1298.9 1388.5 1318.3C1352.42 1363.47 1376.46 1441.2 1326.61 1473.8C1290.39 1497.48 1238.87 1460.53 1199.1 1442.14C1159.78 1423.97 1111.51 1405.7 1097.21 1367.76C1081.96 1327.3 1135.23 1285.04 1124.19 1243.46C1112.95 1201.08 1019.82 1182.06 1037.14 1141.41C1056.11 1096.89 1150.58 1134.81 1185.64 1099.27C1217.61 1066.86 1171.29 1002.61 1204.76 971.472C1233.52 944.717 1285.48 966.911 1326.61 968.111Z" stroke="#30383D"/>
</g>
</svg>
