<svg width="1309" height="1080" viewBox="0 0 1309 1080" fill="none" xmlns="http://www.w3.org/2000/svg">
<g opacity="0.9" filter="url(#filter0_f_443_30728)">
<g opacity="0.8" filter="url(#filter1_f_443_30728)">
<path d="M1098.16 33.2537C816.684 -129.257 456.761 -32.816 294.251 248.66C131.74 530.137 228.181 890.059 509.657 1052.57C329.891 948.781 315.902 636.463 478.413 354.986C640.923 73.5101 918.393 -70.5345 1098.16 33.2537Z" fill="#6780FC"/>
<path d="M1098.16 33.2537C816.684 -129.257 456.761 -32.816 294.251 248.66C131.74 530.137 228.181 890.059 509.657 1052.57C329.891 948.781 315.902 636.463 478.413 354.986C640.923 73.5101 918.393 -70.5345 1098.16 33.2537Z" stroke="#21282C"/>
<path d="M509.66 1052.57C791.136 1215.08 1151.06 1118.64 1313.57 837.16C1476.08 555.684 1379.64 195.761 1098.16 33.2509C1277.93 137.039 1291.92 449.358 1129.41 730.834C966.896 1012.31 689.426 1156.35 509.66 1052.57Z" fill="#81CF80"/>
<path d="M509.66 1052.57C791.136 1215.08 1151.06 1118.64 1313.57 837.16C1476.08 555.684 1379.64 195.761 1098.16 33.2509C1277.93 137.039 1291.92 449.358 1129.41 730.834C966.896 1012.31 689.426 1156.35 509.66 1052.57Z" stroke="#21282C"/>
<path d="M919.546 609.675C757.035 891.151 573.522 1089.44 509.658 1052.57C445.793 1015.7 525.762 757.626 688.272 476.149C850.783 194.673 1034.3 -3.61778 1098.16 33.2543C1162.02 70.1265 1082.06 328.199 919.546 609.675Z" fill="#8CC0FC"/>
<path d="M919.546 609.675C757.035 891.151 573.522 1089.44 509.658 1052.57C445.793 1015.7 525.762 757.626 688.272 476.149C850.783 194.673 1034.3 -3.61778 1098.16 33.2543C1162.02 70.1265 1082.06 328.199 919.546 609.675Z" stroke="#21282C"/>
<path d="M1098.16 33.2538C918.393 -70.5344 640.923 73.5102 478.413 354.986C315.902 636.463 329.891 948.781 509.657 1052.57C445.793 1015.7 525.762 757.625 688.272 476.149C850.782 194.672 1034.3 -3.61835 1098.16 33.2538Z" fill="#1373EC"/>
<path d="M1098.16 33.2538C918.393 -70.5344 640.923 73.5102 478.413 354.986C315.902 636.463 329.891 948.781 509.657 1052.57C445.793 1015.7 525.762 757.625 688.272 476.149C850.782 194.672 1034.3 -3.61835 1098.16 33.2538Z" stroke="#21282C"/>
<path d="M509.66 1052.57C689.426 1156.36 966.896 1012.31 1129.41 730.834C1291.92 449.358 1277.93 137.04 1098.16 33.2514C1162.03 70.1235 1082.06 328.196 919.547 609.672C757.037 891.148 573.524 1089.44 509.66 1052.57Z" fill="#0CA594"/>
<path d="M509.66 1052.57C689.426 1156.36 966.896 1012.31 1129.41 730.834C1291.92 449.358 1277.93 137.04 1098.16 33.2514C1162.03 70.1235 1082.06 328.196 919.547 609.672C757.037 891.148 573.524 1089.44 509.66 1052.57Z" stroke="#21282C"/>
</g>
</g>
<defs>
<filter id="filter0_f_443_30728" x="138.309" y="-122.689" width="1331.2" height="1331.2" filterUnits="userSpaceOnUse" color-interpolation-filters="sRGB">
<feFlood flood-opacity="0" result="BackgroundImageFix"/>
<feBlend mode="normal" in="SourceGraphic" in2="BackgroundImageFix" result="shape"/>
<feGaussianBlur stdDeviation="38.5" result="effect1_foregroundBlur_443_30728"/>
</filter>
<filter id="filter1_f_443_30728" x="38.3086" y="-222.689" width="1531.2" height="1531.2" filterUnits="userSpaceOnUse" color-interpolation-filters="sRGB">
<feFlood flood-opacity="0" result="BackgroundImageFix"/>
<feBlend mode="normal" in="SourceGraphic" in2="BackgroundImageFix" result="shape"/>
<feGaussianBlur stdDeviation="88.5" result="effect1_foregroundBlur_443_30728"/>
</filter>
</defs>
</svg>
