<svg width="214" height="150" viewBox="0 0 214 150" fill="none" xmlns="http://www.w3.org/2000/svg">
<g opacity="0.89">
<mask id="mask0_1042_15226" style="mask-type:alpha" maskUnits="userSpaceOnUse" x="0" y="0" width="214" height="150">
<path d="M0 15C0 6.71573 6.71573 0 15 0H214V150H15C6.71573 150 0 143.284 0 135V15Z" fill="url(#paint0_linear_1042_15226)"/>
</mask>
<g mask="url(#mask0_1042_15226)">
<path d="M614.92 -185.24L-7.77706 398.538" stroke="#30383D" stroke-width="10"/>
<path d="M321.251 -462.396L-301.446 121.382" stroke="#30383D" stroke-width="10"/>
<path d="M664.028 -139.2L41.3313 444.578" stroke="#30383D" stroke-width="10"/>
<path d="M370.359 -416.357L-252.338 167.422" stroke="#30383D" stroke-width="10"/>
<path d="M713.138 -93.1608L90.4406 490.618" stroke="#30383D" stroke-width="10"/>
<path d="M419.468 -370.318L-203.229 213.461" stroke="#30383D" stroke-width="10"/>
<path d="M762.246 -47.1212L139.549 536.657" stroke="#30383D" stroke-width="10"/>
<path d="M468.576 -324.278L-154.121 259.5" stroke="#30383D" stroke-width="10"/>
<path d="M811.354 -1.08264L188.658 582.696" stroke="#30383D" stroke-width="10"/>
<path d="M517.686 -278.239L-105.012 305.54" stroke="#30383D" stroke-width="10"/>
<path d="M566.794 -232.2L-55.903 351.578" stroke="#30383D" stroke-width="10"/>
<path d="M640.457 -163.141L17.7601 420.638" stroke="#30383D" stroke-width="10"/>
<path d="M346.787 -440.298L-275.91 143.481" stroke="#30383D" stroke-width="10"/>
<path d="M689.565 -117.101L66.8685 466.677" stroke="#30383D" stroke-width="10"/>
<path d="M395.896 -394.258L-226.801 189.52" stroke="#30383D" stroke-width="10"/>
<path d="M738.674 -71.0625L115.977 512.716" stroke="#30383D" stroke-width="10"/>
<path d="M445.005 -348.219L-177.692 235.56" stroke="#30383D" stroke-width="10"/>
<path d="M787.782 -25.0231L165.085 558.755" stroke="#30383D" stroke-width="10"/>
<path d="M494.113 -302.179L-128.584 281.599" stroke="#30383D" stroke-width="10"/>
<path d="M836.891 21.0165L214.194 604.795" stroke="#30383D" stroke-width="10"/>
<path d="M543.222 -256.141L-79.4753 327.638" stroke="#30383D" stroke-width="10"/>
<path d="M592.33 -210.101L-30.3669 373.677" stroke="#30383D" stroke-width="10"/>
<path d="M590.366 396.696L-32.3308 -187.082" stroke="#30383D" stroke-width="10"/>
<path d="M541.257 442.736L-81.4401 -141.042" stroke="#30383D" stroke-width="10"/>
<path d="M836.891 167.421L214.194 -416.357" stroke="#30383D" stroke-width="10"/>
<path d="M492.148 488.776L-130.549 -95.0029" stroke="#30383D" stroke-width="10"/>
<path d="M787.782 213.461L165.085 -370.318" stroke="#30383D" stroke-width="10"/>
<path d="M443.04 534.815L-179.657 -48.9635" stroke="#30383D" stroke-width="10"/>
<path d="M738.674 259.499L115.977 -324.279" stroke="#30383D" stroke-width="10"/>
<path d="M393.932 580.854L-228.765 -2.92462" stroke="#30383D" stroke-width="10"/>
<path d="M689.565 305.539L66.8685 -278.24" stroke="#30383D" stroke-width="10"/>
<path d="M344.823 626.893L-277.874 43.1148" stroke="#30383D" stroke-width="10"/>
<path d="M640.457 351.578L17.7601 -232.2" stroke="#30383D" stroke-width="10"/>
<path d="M566.794 420.638L-55.903 -163.141" stroke="#30383D" stroke-width="10"/>
<path d="M517.686 466.676L-105.011 -117.102" stroke="#30383D" stroke-width="10"/>
<path d="M813.319 191.361L190.622 -392.417" stroke="#30383D" stroke-width="10"/>
<path d="M468.576 512.716L-154.121 -71.0625" stroke="#30383D" stroke-width="10"/>
<path d="M764.211 237.401L141.514 -346.377" stroke="#30383D" stroke-width="10"/>
<path d="M419.468 558.755L-203.229 -25.0231" stroke="#30383D" stroke-width="10"/>
<path d="M715.102 283.44L92.4046 -300.338" stroke="#30383D" stroke-width="10"/>
<path d="M370.359 604.795L-252.338 21.0164" stroke="#30383D" stroke-width="10"/>
<path d="M665.993 329.479L43.296 -254.299" stroke="#30383D" stroke-width="10"/>
<path d="M321.251 650.834L-301.446 67.0553" stroke="#30383D" stroke-width="10"/>
<path d="M616.885 375.519L-5.81221 -208.26" stroke="#30383D" stroke-width="10"/>
</g>
</g>
<defs>
<linearGradient id="paint0_linear_1042_15226" x1="0" y1="150" x2="214" y2="150" gradientUnits="userSpaceOnUse">
<stop stop-color="#C4C4C4"/>
<stop offset="1" stop-color="#C4C4C4" stop-opacity="0"/>
</linearGradient>
</defs>
</svg>
