<svg width="214" height="150" viewBox="0 0 214 150" fill="none" xmlns="http://www.w3.org/2000/svg">
<g opacity="0.89">
<mask id="mask0_1042_9117" style="mask-type:alpha" maskUnits="userSpaceOnUse" x="0" y="0" width="214" height="150">
<path d="M0 15C0 6.71576 6.71573 3.05176e-05 15 3.05176e-05H214V150H15C6.71573 150 0 143.284 0 135V15Z" fill="url(#paint0_linear_1042_9117)"/>
</mask>
<g mask="url(#mask0_1042_9117)">
<path fill-rule="evenodd" clip-rule="evenodd" d="M35.1272 10.7593C47.4856 13.2033 50.6133 29.9358 62.232 34.5863C77.861 40.8418 103.997 27.1288 111.638 41.383C119.128 55.3554 93.578 66.7793 87.246 81.2485C83 90.9509 86.4077 102.358 80.9492 111.51C74.7516 121.901 66.559 132.51 54.4917 136.165C42.355 139.841 28.2801 137.076 17.4585 130.739C7.56706 124.947 8.45921 109.997 -1.0368 103.648C-15.5814 93.922 -41.5982 100.539 -49.9064 85.6943C-57.2859 72.5089 -43.5085 56.5114 -34.1466 44.4879C-25.8689 33.8566 -12.9072 28.2492 -0.458939 22.1883C10.9012 16.6571 22.6064 8.28311 35.1272 10.7593Z" fill="#30383D"/>
<path fill-rule="evenodd" clip-rule="evenodd" d="M155.501 -55.5232C167.807 -55.745 180.08 -64.1003 191.411 -59.6176C202.96 -55.0483 212.887 -44.0581 213.952 -32.3991C215.017 -20.7295 198.128 -13.6141 196.672 -1.98129C195.145 10.2176 214.333 23.7934 205.753 33.11C197.192 42.4061 180.424 29.9924 167.285 29.9283C158.893 29.8873 151.196 33.1527 142.812 32.8028C132.184 32.3591 120.924 33.0816 112.04 27.6221C102.036 21.474 93.0324 12.1638 91.2481 1.11404C89.4615 -9.94963 97.7395 -19.8056 102.739 -29.9761C107.73 -40.1304 109.843 -53.1919 120.473 -58.3387C131.089 -63.4791 143.542 -55.3076 155.501 -55.5232Z" fill="#30383D"/>
<path fill-rule="evenodd" clip-rule="evenodd" d="M185.312 65.5555C197.174 67.7577 204.679 77.8775 214.908 83.8848C225.248 89.9576 238.394 91.9648 245.751 101.051C253.882 111.093 259.961 124.029 257.412 136.376C254.883 148.624 240.04 154.476 232.583 164.84C223.651 177.252 225.06 199.752 209.409 203.086C193.376 206.501 184.282 184.066 169.011 178.379C155.965 173.521 138.574 181.58 128.141 172.821C117.757 164.102 120.386 148.562 118.191 135.71C115.961 122.647 109.721 109.146 115.183 96.9345C120.687 84.6282 134.097 77.0567 147.008 71.2796C158.903 65.9573 172.368 63.1526 185.312 65.5555Z" fill="#30383D"/>
</g>
</g>
<defs>
<linearGradient id="paint0_linear_1042_9117" x1="0" y1="150" x2="214" y2="150" gradientUnits="userSpaceOnUse">
<stop stop-color="#6F797F"/>
<stop offset="1" stop-color="#6F797F" stop-opacity="0"/>
</linearGradient>
</defs>
</svg>
