<svg width="214" height="150" viewBox="0 0 214 150" fill="none" xmlns="http://www.w3.org/2000/svg">
<g opacity="0.89">
<mask id="mask0_1042_98" style="mask-type:alpha" maskUnits="userSpaceOnUse" x="0" y="0" width="214" height="150">
<path d="M0 15C0 6.71573 6.71573 0 15 0H214V150H15C6.71573 150 0 143.284 0 135V15Z" fill="url(#paint0_linear_1042_98)"/>
</mask>
<g mask="url(#mask0_1042_98)">
<path d="M20 -6.67072C20 1.75399 12.6359 9.01678 3 9.01678C-6.63594 9.01678 -14 1.75399 -14 -6.67072C-14 -15.0954 -6.63594 -22.3582 3 -22.3582C12.6359 -22.3582 20 -15.0954 20 -6.67072Z" stroke="#30383D" stroke-width="8"/>
<path d="M62 -6.67072C62 1.75399 54.6359 9.01678 45 9.01678C35.3641 9.01678 28 1.75399 28 -6.67072C28 -15.0954 35.3641 -22.3582 45 -22.3582C54.6359 -22.3582 62 -15.0954 62 -6.67072Z" stroke="#30383D" stroke-width="8"/>
<path d="M104 -6.67072C104 1.75399 96.6359 9.01678 87 9.01678C77.3641 9.01678 70 1.75399 70 -6.67072C70 -15.0954 77.3641 -22.3582 87 -22.3582C96.6359 -22.3582 104 -15.0954 104 -6.67072Z" stroke="#30383D" stroke-width="8"/>
<path d="M146 -6.67072C146 1.75399 138.636 9.01678 129 9.01678C119.364 9.01678 112 1.75399 112 -6.67072C112 -15.0954 119.364 -22.3582 129 -22.3582C138.636 -22.3582 146 -15.0954 146 -6.67072Z" stroke="#30383D" stroke-width="8"/>
<path d="M188 -6.67072C188 1.75399 180.636 9.01678 171 9.01678C161.364 9.01678 154 1.75399 154 -6.67072C154 -15.0954 161.364 -22.3582 171 -22.3582C180.636 -22.3582 188 -15.0954 188 -6.67072Z" stroke="#30383D" stroke-width="8"/>
<path d="M230 -6.67072C230 1.75399 222.636 9.01678 213 9.01678C203.364 9.01678 196 1.75399 196 -6.67072C196 -15.0954 203.364 -22.3582 213 -22.3582C222.636 -22.3582 230 -15.0954 230 -6.67072Z" stroke="#30383D" stroke-width="8"/>
<path d="M20 32.7042C20 41.1289 12.6359 48.3917 3 48.3917C-6.63594 48.3917 -14 41.1289 -14 32.7042C-14 24.2795 -6.63594 17.0167 3 17.0167C12.6359 17.0167 20 24.2795 20 32.7042Z" stroke="#30383D" stroke-width="8"/>
<path d="M62 32.7042C62 41.1289 54.6359 48.3917 45 48.3917C35.3641 48.3917 28 41.1289 28 32.7042C28 24.2795 35.3641 17.0167 45 17.0167C54.6359 17.0167 62 24.2795 62 32.7042Z" stroke="#30383D" stroke-width="8"/>
<path d="M104 32.7042C104 41.1289 96.6359 48.3917 87 48.3917C77.3641 48.3917 70 41.1289 70 32.7042C70 24.2795 77.3641 17.0167 87 17.0167C96.6359 17.0167 104 24.2795 104 32.7042Z" stroke="#30383D" stroke-width="8"/>
<path d="M146 32.7042C146 41.1289 138.636 48.3917 129 48.3917C119.364 48.3917 112 41.1289 112 32.7042C112 24.2795 119.364 17.0167 129 17.0167C138.636 17.0167 146 24.2795 146 32.7042Z" stroke="#30383D" stroke-width="8"/>
<path d="M188 32.7042C188 41.1289 180.636 48.3917 171 48.3917C161.364 48.3917 154 41.1289 154 32.7042C154 24.2795 161.364 17.0167 171 17.0167C180.636 17.0167 188 24.2795 188 32.7042Z" stroke="#30383D" stroke-width="8"/>
<path d="M230 32.7042C230 41.1289 222.636 48.3917 213 48.3917C203.364 48.3917 196 41.1289 196 32.7042C196 24.2795 203.364 17.0167 213 17.0167C222.636 17.0167 230 24.2795 230 32.7042Z" stroke="#30383D" stroke-width="8"/>
<path d="M20 72.0792C20 80.5039 12.6359 87.7667 3 87.7667C-6.63594 87.7667 -14 80.5039 -14 72.0792C-14 63.6545 -6.63594 56.3917 3 56.3917C12.6359 56.3917 20 63.6545 20 72.0792Z" stroke="#30383D" stroke-width="8"/>
<path d="M62 72.0792C62 80.5039 54.6359 87.7667 45 87.7667C35.3641 87.7667 28 80.5039 28 72.0792C28 63.6545 35.3641 56.3917 45 56.3917C54.6359 56.3917 62 63.6545 62 72.0792Z" stroke="#30383D" stroke-width="8"/>
<path d="M104 72.0792C104 80.5039 96.6359 87.7667 87 87.7667C77.3641 87.7667 70 80.5039 70 72.0792C70 63.6545 77.3641 56.3917 87 56.3917C96.6359 56.3917 104 63.6545 104 72.0792Z" stroke="#30383D" stroke-width="8"/>
<path d="M146 72.0792C146 80.5039 138.636 87.7667 129 87.7667C119.364 87.7667 112 80.5039 112 72.0792C112 63.6545 119.364 56.3917 129 56.3917C138.636 56.3917 146 63.6545 146 72.0792Z" stroke="#30383D" stroke-width="8"/>
<path d="M188 72.0792C188 80.5039 180.636 87.7667 171 87.7667C161.364 87.7667 154 80.5039 154 72.0792C154 63.6545 161.364 56.3917 171 56.3917C180.636 56.3917 188 63.6545 188 72.0792Z" stroke="#30383D" stroke-width="8"/>
<path d="M230 72.0792C230 80.5039 222.636 87.7667 213 87.7667C203.364 87.7667 196 80.5039 196 72.0792C196 63.6545 203.364 56.3917 213 56.3917C222.636 56.3917 230 63.6545 230 72.0792Z" stroke="#30383D" stroke-width="8"/>
<path d="M20 111.454C20 119.879 12.6359 127.142 3 127.142C-6.63594 127.142 -14 119.879 -14 111.454C-14 103.03 -6.63594 95.7668 3 95.7668C12.6359 95.7668 20 103.03 20 111.454Z" stroke="#30383D" stroke-width="8"/>
<path d="M62 111.454C62 119.879 54.6359 127.142 45 127.142C35.3641 127.142 28 119.879 28 111.454C28 103.03 35.3641 95.7668 45 95.7668C54.6359 95.7668 62 103.03 62 111.454Z" stroke="#30383D" stroke-width="8"/>
<path d="M104 111.454C104 119.879 96.6359 127.142 87 127.142C77.3641 127.142 70 119.879 70 111.454C70 103.03 77.3641 95.7668 87 95.7668C96.6359 95.7668 104 103.03 104 111.454Z" stroke="#30383D" stroke-width="8"/>
<path d="M146 111.454C146 119.879 138.636 127.142 129 127.142C119.364 127.142 112 119.879 112 111.454C112 103.03 119.364 95.7668 129 95.7668C138.636 95.7668 146 103.03 146 111.454Z" stroke="#30383D" stroke-width="8"/>
<path d="M188 111.454C188 119.879 180.636 127.142 171 127.142C161.364 127.142 154 119.879 154 111.454C154 103.03 161.364 95.7668 171 95.7668C180.636 95.7668 188 103.03 188 111.454Z" stroke="#30383D" stroke-width="8"/>
<path d="M230 111.454C230 119.879 222.636 127.142 213 127.142C203.364 127.142 196 119.879 196 111.454C196 103.03 203.364 95.7668 213 95.7668C222.636 95.7668 230 103.03 230 111.454Z" stroke="#30383D" stroke-width="8"/>
<path d="M20 150.829C20 159.254 12.6359 166.517 3 166.517C-6.63594 166.517 -14 159.254 -14 150.829C-14 142.405 -6.63594 135.142 3 135.142C12.6359 135.142 20 142.405 20 150.829Z" stroke="#30383D" stroke-width="8"/>
<path d="M62 150.829C62 159.254 54.6359 166.517 45 166.517C35.3641 166.517 28 159.254 28 150.829C28 142.405 35.3641 135.142 45 135.142C54.6359 135.142 62 142.405 62 150.829Z" stroke="#30383D" stroke-width="8"/>
<path d="M104 150.829C104 159.254 96.6359 166.517 87 166.517C77.3641 166.517 70 159.254 70 150.829C70 142.405 77.3641 135.142 87 135.142C96.6359 135.142 104 142.405 104 150.829Z" stroke="#30383D" stroke-width="8"/>
<path d="M146 150.829C146 159.254 138.636 166.517 129 166.517C119.364 166.517 112 159.254 112 150.829C112 142.405 119.364 135.142 129 135.142C138.636 135.142 146 142.405 146 150.829Z" stroke="#30383D" stroke-width="8"/>
<path d="M188 150.829C188 159.254 180.636 166.517 171 166.517C161.364 166.517 154 159.254 154 150.829C154 142.405 161.364 135.142 171 135.142C180.636 135.142 188 142.405 188 150.829Z" stroke="#30383D" stroke-width="8"/>
<path d="M230 150.829C230 159.254 222.636 166.517 213 166.517C203.364 166.517 196 159.254 196 150.829C196 142.405 203.364 135.142 213 135.142C222.636 135.142 230 142.405 230 150.829Z" stroke="#30383D" stroke-width="8"/>
</g>
</g>
<defs>
<linearGradient id="paint0_linear_1042_98" x1="0" y1="150" x2="214" y2="150" gradientUnits="userSpaceOnUse">
<stop stop-color="#C4C4C4"/>
<stop offset="1" stop-color="#C4C4C4" stop-opacity="0"/>
</linearGradient>
</defs>
</svg>
